<?xml version="1.0" encoding="iso-8859-1"?>
<!-- Generator: Adobe Illustrator 16.0.0, SVG Export Plug-In . SVG Version: 6.00 Build 0)  -->
<!DOCTYPE svg PUBLIC "-//W3C//DTD SVG 1.1//EN" "http://www.w3.org/Graphics/SVG/1.1/DTD/svg11.dtd">
<svg version="1.1" id="Capa_1" xmlns="http://www.w3.org/2000/svg" xmlns:xlink="http://www.w3.org/1999/xlink" x="0px" y="0px"
	 width="124.029px" height="124.029px" viewBox="0 0 124.029 124.029" style="enable-background:new 0 0 124.029 124.029;"
	 xml:space="preserve">
<g>
	<g>
		<path d="M46.163,71.234c9.877,0,17.884-8.008,17.884-17.884c0-9.877-8.006-17.884-17.884-17.884S28.279,43.473,28.279,53.35
			C28.279,63.226,36.286,71.234,46.163,71.234z M45.299,54.589c-3.425-1.24-5.643-2.806-5.643-5.839
			c0-2.805,1.957-4.958,5.251-5.545v-3.197h2.676v3.034c2.054,0.065,3.457,0.554,4.5,1.076l-0.88,3.001
			c-0.782-0.359-2.218-1.109-4.437-1.109c-2.283,0-3.098,1.174-3.098,2.283c0,1.337,1.173,2.088,3.946,3.197
			c3.654,1.37,5.286,3.131,5.286,6.034c0,2.772-1.924,5.219-5.513,5.806v3.359h-2.675v-3.166c-2.055-0.062-4.11-0.65-5.285-1.432
			l0.882-3.067c1.271,0.75,3.098,1.435,5.088,1.435c2.056,0,3.458-1.011,3.458-2.576C48.854,56.415,47.712,55.47,45.299,54.589z"/>
		<path d="M72.838,39.089c9.909,0,17.941-8.033,17.941-17.942c0-9.909-8.032-17.942-17.941-17.942
			c-9.909,0-17.941,8.033-17.941,17.942C54.897,31.056,62.929,39.089,72.838,39.089z M63.415,21.899h1.833c0-0.164,0-0.36,0-0.524
			c0-0.393,0.033-0.817,0.066-1.177h-1.899v-2.029h2.192c0.394-1.997,1.277-3.698,2.455-4.941c1.767-1.963,4.156-3.076,7.068-3.076
			c1.963,0,3.6,0.491,4.68,1.015l-0.818,3.043c-0.85-0.457-2.191-0.884-3.665-0.884c-1.638,0-3.078,0.589-4.155,1.8
			c-0.689,0.72-1.18,1.8-1.441,3.043h8.574v2.029h-8.967c-0.064,0.36-0.064,0.752-0.064,1.145c0,0.196,0,0.36,0,0.557h9.033v1.995
			h-8.674c0.23,1.408,0.721,2.455,1.41,3.208c1.11,1.21,2.682,1.766,4.385,1.766c1.603,0,3.106-0.556,3.86-0.98l0.688,2.944
			c-1.08,0.655-2.914,1.31-5.008,1.31c-2.978,0-5.66-1.179-7.395-3.371c-1.047-1.211-1.768-2.848-2.062-4.877h-2.097V21.899z"/>
		<path d="M108.582,47.367c8.531,0,15.447-6.916,15.447-15.447c0-8.531-6.916-15.447-15.447-15.447s-15.447,6.916-15.447,15.447
			C93.135,40.451,100.051,47.367,108.582,47.367z M105.004,22.763l2.367,5.1c0.507,1.042,0.816,1.916,1.184,2.817h0.057
			c0.339-0.845,0.703-1.831,1.184-2.874l2.452-5.043h3.662l-4.931,8.255h3.494v1.719h-4.424v1.916h4.424v1.719h-4.424v4.705h-3.24
			v-4.705h-4.395v-1.719h4.395v-1.916h-4.395v-1.719h3.521l-4.676-8.255H105.004z"/>
		<path d="M74.703,60.601c0,8.813,7.145,15.958,15.957,15.958c8.814,0,15.958-7.145,15.958-15.958
			c0-8.814-7.144-15.958-15.958-15.958S74.703,51.787,74.703,60.601z M96.219,51.708l-0.64,2.707
			c-0.554-0.321-1.397-0.583-2.532-0.583c-2.154,0-2.941,1.455-2.941,3.144c0,0.989,0.146,1.776,0.322,2.619h4.074v2.474h-3.755
			c0.03,0.902,0.03,1.775-0.204,2.59c-0.291,0.99-0.873,1.834-1.688,2.562v0.058h8.179v2.94H84.285v-1.951
			c1.748-0.813,3.29-2.562,3.29-4.627c0-0.553-0.028-1.02-0.116-1.571h-2.91v-2.474h2.502c-0.146-0.815-0.291-1.775-0.291-2.707
			c0-3.58,2.533-5.908,6.142-5.908C94.473,50.981,95.578,51.33,96.219,51.708z"/>
		<path d="M116.212,81.589c-2.056-1.637-6.036-3.549-10.499-3.549c-3.775,0-9.246,1.369-13.893,7.879
			c-4.18,5.336-9.419,7.496-13.674,8.314c0.382-0.953,0.63-2.098,0.637-3.717c0.038-9.051-7.176-15.855-17.151-15.9l-35.608,0.031
			c-3.342,0-6.631,0.986-9.404,2.771v-4.633H0v48.039h16.619v-5.104c0.628,0.311,1.493,0.938,1.493,0.938
			c2.861,1.578,7.295,3.515,11.818,3.515h32.713c28.179,0,47.634-15.787,54.69-23.607c2.108-2.338,4.292-4.756,4.041-7.801
			C121.152,86.044,119.15,83.929,116.212,81.589z M11.053,83.398H5.244v-5.809h5.809V83.398z M113.021,92.675
			c-6.535,7.244-24.528,21.69-50.377,21.69H29.931c-5.531,0-11.487-4.326-11.541-4.368c-0.51-0.376-1.117-0.568-1.729-0.568
			c-0.013,0-0.027,0.004-0.042,0.004V83.835c0.636,0.012,1.27-0.171,1.795-0.57l0.635-0.479c1.976-1.501,4.452-2.328,6.961-2.328
			l35.595-0.032c5.68,0.025,11.399,3.286,11.37,10.068c0,3.916-2.611,4.117-2.752,4.152H44.13c-1.604,0-2.904,1.301-2.904,2.904
			c0,1.603,1.3,2.902,2.904,2.902h27.693l1.543-0.004c4.347-0.001,15.295-1.027,23.073-11.008c0.025-0.034,0.053-0.069,0.076-0.104
			c2.586-3.641,5.68-5.487,9.196-5.487c3.175,0,5.89,1.494,6.88,2.283c2.91,2.317,2.991,3.077,2.993,3.108
			C115.596,89.825,113.727,91.896,113.021,92.675z"/>
	</g>
</g>
<g>
</g>
<g>
</g>
<g>
</g>
<g>
</g>
<g>
</g>
<g>
</g>
<g>
</g>
<g>
</g>
<g>
</g>
<g>
</g>
<g>
</g>
<g>
</g>
<g>
</g>
<g>
</g>
<g>
</g>
</svg>
