<?xml version="1.0" encoding="iso-8859-1"?>
<!-- Generator: Adobe Illustrator 18.1.1, SVG Export Plug-In . SVG Version: 6.00 Build 0)  -->
<svg version="1.1" id="Capa_1" xmlns="http://www.w3.org/2000/svg" xmlns:xlink="http://www.w3.org/1999/xlink" x="0px" y="0px"
	 viewBox="0 0 285 285" style="enable-background:new 0 0 285 285;" xml:space="preserve">
<g>
	<g>
		<path d="M142.5,0C63.934,0,0,63.934,0,142.5S63.934,285,142.5,285S285,221.066,285,142.5S221.066,0,142.5,0z M142.5,271.424
			c-71.083,0-128.924-57.841-128.924-128.924S71.417,13.576,142.5,13.576S271.424,71.417,271.424,142.5
			S213.583,271.424,142.5,271.424z"/>
		<path d="M153.138,62.919H98.637c-12.586,0-20.831,4.991-20.831,20.843v120.507c0,10.632,6.928,17.807,17.788,17.807
			c10.854,0,17.807-7.175,17.807-17.807v-42.336h39.515c34.524,0,54.279-21.065,54.279-49.504
			C207.194,77.683,183.11,62.919,153.138,62.919z M146.632,134.583H113.4V90.269h29.545c17.584,0,28.661,6.525,28.661,22.16
			C171.606,125.881,160.956,134.583,146.632,134.583z"/>
	</g>
</g>
<g>
</g>
<g>
</g>
<g>
</g>
<g>
</g>
<g>
</g>
<g>
</g>
<g>
</g>
<g>
</g>
<g>
</g>
<g>
</g>
<g>
</g>
<g>
</g>
<g>
</g>
<g>
</g>
<g>
</g>
</svg>
