<?xml version="1.0" encoding="iso-8859-1"?>
<!-- Generator: Adobe Illustrator 17.1.0, SVG Export Plug-In . SVG Version: 6.00 Build 0)  -->
<!DOCTYPE svg PUBLIC "-//W3C//DTD SVG 1.1//EN" "http://www.w3.org/Graphics/SVG/1.1/DTD/svg11.dtd">
<svg version="1.1" id="Capa_1" xmlns="http://www.w3.org/2000/svg" xmlns:xlink="http://www.w3.org/1999/xlink" x="0px" y="0px"
	 viewBox="0 0 465 465" style="enable-background:new 0 0 465 465;" xml:space="preserve">
<g>
	<path d="M169.398,143.44c-0.506-8.256-6.535-16.056-14.318-18.845c-2.104-1.317-4.806-2.011-7.553-2.53
		c-7.152-1.352-18.924-2.037-34.988-2.037s-27.836,0.685-34.988,2.037c-2.748,0.519-5.448,1.213-7.553,2.53
		c-7.783,2.788-13.812,10.588-14.318,18.845c-0.036,0.59-3.619,59.791-3.66,129.074c0.041,69.274,3.624,128.475,3.66,129.065
		c0.507,8.257,6.536,16.057,14.319,18.844c2.105,1.317,4.806,2.011,7.553,2.53c7.152,1.352,18.924,2.037,34.988,2.037
		s27.835-0.685,34.988-2.037c2.747-0.519,5.448-1.213,7.553-2.53c7.783-2.788,13.813-10.588,14.318-18.845
		c0.036-0.59,3.619-59.791,3.66-129.074C173.017,203.23,169.434,144.03,169.398,143.44z M154.427,400.661
		c-0.14,2.283-2.541,5.185-4.757,5.75c-0.979,0.25-1.882,0.689-2.666,1.281c-1.751,0.564-9.192,2.298-34.465,2.298
		s-32.713-1.734-34.465-2.298c-0.784-0.592-1.687-1.032-2.666-1.281c-2.216-0.565-4.617-3.467-4.757-5.75
		c-0.036-0.586-3.59-59.357-3.631-128.147c0.041-68.798,3.596-127.571,3.631-128.156c0.14-2.283,2.542-5.185,4.758-5.75
		c0.979-0.25,1.882-0.69,2.665-1.281c1.751-0.564,9.192-2.298,34.465-2.298s32.713,1.734,34.465,2.298
		c0.784,0.591,1.686,1.032,2.665,1.281c2.216,0.565,4.617,3.467,4.757,5.75c0.036,0.585,3.59,59.358,3.631,128.147
		C158.017,341.304,154.462,400.075,154.427,400.661z"/>
	<path d="M274.641,175.039h101.775c4.143,0,7.5-3.358,7.5-7.5s-3.357-7.5-7.5-7.5H274.641c-4.143,0-7.5,3.358-7.5,7.5
		S270.498,175.039,274.641,175.039z"/>
	<path d="M285.395,369.98h-10.754c-4.143,0-7.5,3.358-7.5,7.5s3.357,7.5,7.5,7.5h10.754c4.143,0,7.5-3.358,7.5-7.5
		S289.537,369.98,285.395,369.98z"/>
	<path d="M376.416,369.98h-10.753c-4.143,0-7.5,3.358-7.5,7.5s3.357,7.5,7.5,7.5h10.753c4.143,0,7.5-3.358,7.5-7.5
		S380.559,369.98,376.416,369.98z"/>
	<path d="M331.99,369.98h-10.754c-4.143,0-7.5,3.358-7.5,7.5s3.357,7.5,7.5,7.5h10.754c4.143,0,7.5-3.358,7.5-7.5
		S336.132,369.98,331.99,369.98z"/>
	<path d="M274.641,343.971h10.754c4.143,0,7.5-3.358,7.5-7.5s-3.357-7.5-7.5-7.5h-10.754c-4.143,0-7.5,3.358-7.5,7.5
		S270.498,343.971,274.641,343.971z"/>
	<path d="M376.416,328.971h-10.753c-4.143,0-7.5,3.358-7.5,7.5s3.357,7.5,7.5,7.5h10.753c4.143,0,7.5-3.358,7.5-7.5
		S380.559,328.971,376.416,328.971z"/>
	<path d="M331.99,328.971h-10.754c-4.143,0-7.5,3.358-7.5,7.5s3.357,7.5,7.5,7.5h10.754c4.143,0,7.5-3.358,7.5-7.5
		S336.132,328.971,331.99,328.971z"/>
	<path d="M274.641,302.961h10.754c4.143,0,7.5-3.358,7.5-7.5s-3.357-7.5-7.5-7.5h-10.754c-4.143,0-7.5,3.358-7.5,7.5
		S270.498,302.961,274.641,302.961z"/>
	<path d="M376.416,287.961h-10.753c-4.143,0-7.5,3.358-7.5,7.5s3.357,7.5,7.5,7.5h10.753c4.143,0,7.5-3.358,7.5-7.5
		S380.559,287.961,376.416,287.961z"/>
	<path d="M331.99,287.961h-10.754c-4.143,0-7.5,3.358-7.5,7.5s3.357,7.5,7.5,7.5h10.754c4.143,0,7.5-3.358,7.5-7.5
		S336.132,287.961,331.99,287.961z"/>
	<path d="M445.49,0H19.51c-4.142,0-7.5,3.358-7.5,7.5v80.02V457.5c0,4.142,3.358,7.5,7.5,7.5H445.49c4.143,0,7.5-3.358,7.5-7.5
		V87.52V7.5C452.99,3.358,449.632,0,445.49,0z M27.01,15H437.99v65.02H27.01V15z M27.01,95.02h171.057V450H27.01V95.02z M437.99,450
		H213.068V95.02H437.99V450z"/>
	<path d="M412.98,47.51c0-4.142-3.357-7.5-7.5-7.5H59.52c-4.142,0-7.5,3.358-7.5,7.5s3.358,7.5,7.5,7.5H405.48
		C409.622,55.01,412.98,51.652,412.98,47.51z"/>
</g>
<g>
</g>
<g>
</g>
<g>
</g>
<g>
</g>
<g>
</g>
<g>
</g>
<g>
</g>
<g>
</g>
<g>
</g>
<g>
</g>
<g>
</g>
<g>
</g>
<g>
</g>
<g>
</g>
<g>
</g>
</svg>
