<?xml version="1.0" encoding="iso-8859-1"?>
<!-- Generator: Adobe Illustrator 18.1.1, SVG Export Plug-In . SVG Version: 6.00 Build 0)  -->
<svg version="1.1" id="Capa_1" xmlns="http://www.w3.org/2000/svg" xmlns:xlink="http://www.w3.org/1999/xlink" x="0px" y="0px"
	 viewBox="0 0 22.619 22.619" style="enable-background:new 0 0 22.619 22.619;" xml:space="preserve">
<g>
	<g>
		<path style="fill:#030104;" d="M20.183,20.343h-0.476V18.08c-0.078,0.047-0.168,0.075-0.267,0.075c-1.003,0-1.802-0.3-2.377-0.891
			c-0.118-0.122-0.221-0.249-0.309-0.38c-0.071,0.108-0.152,0.215-0.245,0.317c-0.571,0.633-1.418,0.953-2.515,0.953
			c-1.004,0-1.803-0.3-2.378-0.891c-0.118-0.122-0.22-0.249-0.309-0.38c-0.071,0.108-0.152,0.215-0.245,0.317
			c-0.572,0.633-1.418,0.953-2.515,0.953c-1.003,0-1.803-0.3-2.378-0.891c-0.118-0.122-0.22-0.249-0.308-0.38
			c-0.071,0.108-0.153,0.215-0.245,0.317c-0.572,0.633-1.419,0.953-2.516,0.953c-0.069,0-0.134-0.014-0.194-0.038v2.227H2.434
			c-0.419,0-0.759,0.34-0.759,0.759v0.76c0,0.419,0.34,0.759,0.759,0.759h17.749c0.419,0,0.76-0.34,0.76-0.759V21.1
			C20.943,20.683,20.602,20.343,20.183,20.343z"/>
		<path style="fill:#030104;" d="M4.837,16.495c0.405-0.447,0.461-1.051,0.464-1.313c-0.007-0.115-0.006-0.188-0.005-0.199
			c0.008-0.278,0.23-0.502,0.508-0.512c0.279-0.009,0.515,0.197,0.542,0.475c0.001,0.011,0.008,0.083,0.008,0.197
			c0.021,0.276,0.12,0.928,0.578,1.394c0.369,0.376,0.913,0.565,1.617,0.565c0.787,0,1.371-0.203,1.735-0.606
			c0.406-0.447,0.461-1.051,0.464-1.313c-0.007-0.115-0.006-0.188-0.006-0.199c0.008-0.278,0.23-0.502,0.507-0.512
			c0.277-0.009,0.515,0.197,0.543,0.475c0.001,0.011,0.007,0.083,0.008,0.197c0.021,0.276,0.12,0.928,0.578,1.394
			c0.369,0.376,0.912,0.565,1.617,0.565c0.787,0,1.37-0.203,1.734-0.606c0.405-0.447,0.461-1.051,0.464-1.313
			c-0.007-0.115-0.006-0.188-0.006-0.199c0.009-0.278,0.23-0.502,0.508-0.512c0.273-0.009,0.515,0.197,0.543,0.475
			c0.001,0.011,0.008,0.083,0.008,0.197c0.021,0.276,0.12,0.928,0.578,1.394c0.369,0.376,0.912,0.565,1.616,0.565
			c0.099,0,0.188,0.029,0.267,0.075v-2.434c0-0.419-0.339-0.759-0.759-0.759h-0.496v-1.925c-0.066,0.039-0.144,0.063-0.227,0.063
			c-0.854,0-1.534-0.255-2.022-0.758c-0.101-0.103-0.188-0.211-0.262-0.322c-0.062,0.092-0.13,0.183-0.209,0.27
			c-0.486,0.538-1.206,0.811-2.14,0.811c-0.853,0-1.533-0.255-2.022-0.758c-0.101-0.103-0.187-0.211-0.262-0.322
			c-0.06,0.092-0.13,0.183-0.208,0.27c-0.487,0.538-1.207,0.811-2.139,0.811c-0.853,0-1.534-0.255-2.022-0.758
			c-0.1-0.103-0.187-0.211-0.263-0.322c-0.06,0.092-0.129,0.183-0.208,0.27c-0.487,0.538-1.207,0.811-2.14,0.811
			c-0.058,0-0.114-0.012-0.165-0.032v1.894H3.667c-0.419,0-0.759,0.34-0.759,0.759v2.397c0.06-0.024,0.125-0.039,0.194-0.039
			C3.889,17.101,4.473,16.898,4.837,16.495z"/>
		<path style="fill:#030104;" d="M5.804,10.711c0.345-0.382,0.393-0.895,0.395-1.119C6.193,9.495,6.194,9.434,6.194,9.424
			C6.201,9.188,6.39,8.998,6.626,8.989c0.237-0.007,0.438,0.168,0.461,0.403c0.001,0.01,0.007,0.071,0.007,0.168
			c0.018,0.235,0.102,0.789,0.491,1.186c0.314,0.32,0.777,0.481,1.376,0.481c0.669,0,1.166-0.174,1.476-0.516
			c0.345-0.382,0.393-0.895,0.395-1.119c-0.007-0.097-0.005-0.158-0.005-0.168c0.007-0.236,0.196-0.426,0.432-0.435
			c0.235-0.007,0.438,0.168,0.461,0.403c0.001,0.01,0.006,0.071,0.007,0.168c0.018,0.235,0.102,0.789,0.491,1.186
			c0.313,0.32,0.776,0.481,1.375,0.481c0.67,0,1.166-0.174,1.477-0.516c0.345-0.382,0.392-0.895,0.395-1.119
			c-0.007-0.097-0.006-0.158-0.006-0.168c0.008-0.236,0.195-0.426,0.432-0.435c0.233-0.007,0.438,0.168,0.462,0.403
			c0.001,0.01,0.007,0.071,0.008,0.168c0.018,0.235,0.101,0.789,0.49,1.186c0.313,0.32,0.776,0.481,1.376,0.481
			c0.083,0,0.16,0.024,0.227,0.063V9.221c0-0.357-0.289-0.646-0.646-0.646h-4.931V4.427c0,0,0.447-0.494,0-0.463
			c-0.449,0.031-0.708,0.336-1.444,0.518c-0.075,0.019-0.146,0.03-0.217,0.044c0.029-0.155,0.103-0.309,0.249-0.445
			c0.243-0.226,0.361-0.471,0.351-0.727c-0.015-0.402-0.344-0.669-0.358-0.681c-0.06-0.048-0.146-0.039-0.194,0.021
			s-0.039,0.146,0.021,0.195c0.002,0.002,0.246,0.203,0.256,0.477c0.003,0.172-0.086,0.344-0.266,0.513
			c-0.221,0.207-0.317,0.449-0.34,0.691c-0.342,0.04-0.803,0.007-1.194-0.051c-0.39-0.058,0,0.53,0,0.53v3.525H4.809
			c-0.356,0-0.646,0.289-0.646,0.646v2.038c0.051-0.021,0.106-0.032,0.165-0.032C4.998,11.227,5.494,11.053,5.804,10.711z"/>
		<g>
			<path style="fill:#030104;" d="M11.062,0c-2.212,2.574-0.724,3.78-0.307,4.047c0.068-0.125,0.154-0.241,0.264-0.343
				c0.082-0.077,0.179-0.191,0.175-0.301c-0.004-0.118-0.117-0.24-0.156-0.274c-0.175-0.142-0.202-0.403-0.06-0.581
				c0.069-0.085,0.167-0.14,0.278-0.152c0.109-0.015,0.218,0.019,0.305,0.088c0.046,0.037,0.443,0.372,0.462,0.886
				c0.008,0.217-0.056,0.423-0.178,0.619c0.119,0.027,0.288-0.068,0.599-0.486C13.32,1.476,11.062,0,11.062,0z"/>
		</g>
	</g>
</g>
<g>
</g>
<g>
</g>
<g>
</g>
<g>
</g>
<g>
</g>
<g>
</g>
<g>
</g>
<g>
</g>
<g>
</g>
<g>
</g>
<g>
</g>
<g>
</g>
<g>
</g>
<g>
</g>
<g>
</g>
</svg>
